<?xml version="1.0" encoding="iso-8859-1"?>
<!-- Generator: Adobe Illustrator 16.0.0, SVG Export Plug-In . SVG Version: 6.00 Build 0)  -->
<!DOCTYPE svg PUBLIC "-//W3C//DTD SVG 1.1//EN" "http://www.w3.org/Graphics/SVG/1.1/DTD/svg11.dtd">
<svg version="1.1" id="Layer_1" xmlns="http://www.w3.org/2000/svg" xmlns:xlink="http://www.w3.org/1999/xlink" x="0px" y="0px"
	 width="67.25px" height="26.5px" viewBox="0 0 67.25 26.5" style="enable-background:new 0 0 67.25 26.5;" xml:space="preserve">
<g>
	<g>
		<path style="fill:#FFFFFF;" d="M18.137,3.331v7.102c0,0.848,0,1.498,0.529,2.254c0.391,0.561,1.131,0.939,1.953,0.939
			c0.805,0,1.541-0.361,1.924-0.924c0.527-0.74,0.527-1.391,0.527-2.27V3.331h1.24v7.102c0.018,1.303-0.152,2.588-1.27,3.449
			c-0.621,0.529-1.453,0.85-2.422,0.85c-0.787,0-1.771-0.229-2.467-0.85c-1.184-0.953-1.273-2.225-1.273-3.449V3.331H18.137z"/>
		<path style="fill:#FFFFFF;" d="M30.281,11.415c0.176,1.863,1.537,2.258,2.236,2.258c1.162,0,2.24-0.896,2.24-2.139
			c0-1.57-1.348-1.92-2.65-2.344c-0.908-0.271-2.859-0.848-2.859-2.967c-0.031-1.98,1.617-3.086,3.326-3.086
			c1.396,0,3,0.771,3.182,2.893h-1.24c-0.135-0.73-0.502-1.834-1.984-1.834c-1.117,0-2.043,0.758-2.043,1.922
			c-0.012,1.361,1.094,1.697,2.785,2.27c1.061,0.406,2.725,1,2.725,3.059c0,1.832-1.373,3.285-3.467,3.285
			c-1.877,0-3.438-1.18-3.512-3.316H30.281z"/>
		<path style="fill:#FFFFFF;" d="M42.446,4.44h-2.753V3.331h6.784V4.44h-2.771v10.094h-1.26V4.44z"/>
		<path style="fill:#FFFFFF;" d="M49.444,8.966c0-3.453,2.678-5.828,5.844-5.828c3.285,0,5.84,2.512,5.84,5.795
			c0,3.285-2.543,5.799-5.84,5.799c-3.318,0-5.844-2.557-5.844-5.752V8.966z M50.698,8.933c0,2.635,1.982,4.693,4.602,4.693
			c2.65,0,4.588-2.133,4.588-4.693c0-2.557-1.938-4.689-4.6-4.689c-2.637,0-4.59,2.086-4.59,4.676V8.933z"/>
	</g>
</g>
<path style="fill:#FFFFFF;" d="M4.723,16.769c0.887,0,1.305,0.102,1.693,0.4c0.418,0.324,0.67,0.908,0.67,1.494
	c0,0.598-0.262,1.197-0.646,1.496c-0.412,0.324-0.836,0.424-1.654,0.424H3.774v2.473H3.065v-6.287H4.723z M3.774,19.966h1.004
	c0.523,0,0.848-0.061,1.16-0.268c0.275-0.178,0.471-0.576,0.471-1.018c0-0.451-0.195-0.85-0.477-1.027
	c-0.313-0.205-0.637-0.262-1.176-0.262H3.774V19.966z"/>
<path style="fill:#FFFFFF;" d="M10.368,16.769h3.482v0.623h-2.787v2.182h2.765v0.621h-2.765v2.242h2.787v0.619h-3.482V16.769z"/>
<path style="fill:#FFFFFF;" d="M17.447,16.769h1.641c0.986,0,1.443,0.119,1.766,0.324c0.51,0.305,0.857,0.977,0.857,1.686
	c0.008,0.43-0.109,0.879-0.373,1.234c-0.373,0.512-0.824,0.631-1.398,0.691l1.561,2.352h-0.766l-1.775-2.744h0.203
	c0.443,0,1.053-0.006,1.395-0.324c0.33-0.322,0.477-0.703,0.477-1.152c0-0.467-0.23-0.961-0.625-1.217
	c-0.311-0.203-0.701-0.227-1.271-0.227h-0.982v5.664h-0.707V16.769z"/>
<path style="fill:#FFFFFF;" d="M25.037,16.769h3.201v0.623h-2.496v2.207h2.479v0.627h-2.479v2.83h-0.705V16.769z"/>
<path style="fill:#FFFFFF;" d="M31.725,16.769h3.482v0.623H32.42v2.182h2.768v0.621H32.42v2.242h2.787v0.619h-3.482V16.769z"/>
<path style="fill:#FFFFFF;" d="M44.747,21.366c-0.406,0.967-1.502,1.801-2.889,1.801c-1.864,0-3.278-1.436-3.278-3.254
	c0-1.795,1.385-3.256,3.267-3.256c1.559,0,2.533,1.039,2.9,1.838h-0.756c-0.211-0.377-0.926-1.215-2.145-1.215
	c-1.466,0-2.567,1.162-2.567,2.625c0,1.486,1.107,2.641,2.567,2.641c1.318,0,1.992-0.941,2.145-1.18H44.747z"/>
<path style="fill:#FFFFFF;" d="M49.2,17.392h-1.551v-0.623h3.809v0.623h-1.555v5.664H49.2V17.392z"/>
<path style="fill:#FFFFFF;" d="M53.968,19.927c0-1.934,1.506-3.27,3.281-3.27c1.846,0,3.283,1.412,3.283,3.256
	c0,1.842-1.432,3.254-3.283,3.254c-1.861,0-3.281-1.436-3.281-3.23V19.927z M54.673,19.913c0,1.479,1.111,2.633,2.586,2.633
	c1.486,0,2.572-1.199,2.572-2.633c0-1.438-1.086-2.633-2.582-2.633c-1.479,0-2.576,1.17-2.576,2.625V19.913z"/>
<g>
	<g>
		<path style="fill:#FFFFFF;" d="M63.252,1.882c1.508,0,2.683,1.239,2.683,2.711c0,1.508-1.21,2.711-2.698,2.711
			c-1.5,0-2.711-1.203-2.711-2.711c0-1.465,1.168-2.711,2.719-2.711H63.252z M63.23,2.335c-1.261,0-2.217,1.026-2.217,2.258
			c0,1.253,0.998,2.258,2.223,2.258c1.219,0,2.209-0.991,2.209-2.258c0-1.218-0.941-2.258-2.209-2.258H63.23z M63.357,3.05
			c0.481,0,1.098,0.184,1.098,0.85c0,0.276-0.106,0.566-0.518,0.743c0.277,0.1,0.432,0.276,0.461,0.701
			c0.035,0.552,0.035,0.609,0.092,0.758h-0.595c-0.057-0.1-0.077-0.503-0.099-0.723c-0.021-0.233-0.064-0.51-0.638-0.51h-0.474
			v1.232h-0.617V3.05H63.357z M62.686,3.489v0.97h0.516c0.178-0.007,0.645,0,0.645-0.517c0-0.453-0.41-0.453-0.588-0.453H62.686z"/>
	</g>
</g>
<path style="fill:#FFFFFF;" d="M10.948,8.948c0.258-0.135,0.486-0.334,0.684-0.6c0.398-0.525,0.613-1.203,0.596-1.904
	c0-1.082-0.553-2.135-1.367-2.613c-0.578-0.354-1.379-0.5-2.762-0.5H3.065v11.215h5.033c1.383,0,2.336-0.078,3.117-0.496
	c0.84-0.447,1.455-1.461,1.455-2.543c0.016-0.703-0.127-1.367-0.711-1.979C11.588,9.144,11.016,8.94,10.948,8.948z M9.245,9.032
	c0.52,0.158,1.08,0.402,1.33,0.627c0.455,0.432,0.68,1.053,0.68,1.697c0,0.668-0.305,1.34-0.82,1.67
	c-0.428,0.268-1.158,0.318-2.057,0.318H4.434V4.536h3.74c0.898,0,1.43,0.049,1.854,0.316c0.521,0.328,0.875,1.004,0.875,1.67
	c0,0.645-0.221,1.17-0.678,1.596C10,8.323,9.624,8.595,9.223,8.759"/>
</svg>
